<?xml version="1.0" encoding="UTF-8" standalone="no"?>
<!-- Generator: Adobe Illustrator 20.0.0, SVG Export Plug-In . SVG Version: 6.00 Build 0)  -->

<svg
   xmlns:dc="http://purl.org/dc/elements/1.1/"
   xmlns:cc="http://creativecommons.org/ns#"
   xmlns:rdf="http://www.w3.org/1999/02/22-rdf-syntax-ns#"
   xmlns:svg="http://www.w3.org/2000/svg"
   xmlns="http://www.w3.org/2000/svg"
   xmlns:sodipodi="http://sodipodi.sourceforge.net/DTD/sodipodi-0.dtd"
   xmlns:inkscape="http://www.inkscape.org/namespaces/inkscape"
   version="1.1"
   id="Layer_1"
   x="0px"
   y="0px"
   viewBox="0 0 205 150"
   xml:space="preserve"
   inkscape:version="0.91 r13725"
   sodipodi:docname="Electionland-logo-edit.svg"
   width="205"
   height="150"><metadata
     id="metadata47"><rdf:RDF><cc:Work
         rdf:about=""><dc:format>image/svg+xml</dc:format><dc:type
           rdf:resource="http://purl.org/dc/dcmitype/StillImage" /><dc:title>Electionland logo</dc:title></cc:Work></rdf:RDF></metadata><defs
     id="defs45" /><sodipodi:namedview
     pagecolor="#ffffff"
     bordercolor="#666666"
     borderopacity="1"
     objecttolerance="10"
     gridtolerance="10"
     guidetolerance="10"
     inkscape:pageopacity="0"
     inkscape:pageshadow="2"
     inkscape:window-width="1352"
     inkscape:window-height="794"
     id="namedview43"
     showgrid="false"
     fit-margin-top="0"
     fit-margin-left="0"
     fit-margin-right="0"
     fit-margin-bottom="0"
     inkscape:zoom="1.1464497"
     inkscape:cx="266.01485"
     inkscape:cy="52.65709"
     inkscape:window-x="0"
     inkscape:window-y="0"
     inkscape:window-maximized="0"
     inkscape:current-layer="Layer_1" /><style
     type="text/css"
     id="style3">
	.st0{fill:#FFFFFF;}
	.st1{fill:#FF0000;}
	.st2{fill:#49B3E6;}
	.st3{fill:#231F20;}
</style><title
     id="title5">Electionland logo</title><path
     class="st0"
     d="m 0,181.09998 43.1,0 0,11.7 -28.2,0 0,15.5 22.6,0 0,10.9 -22.6,0 0,16.5 29.7,0 0,11.7 -44.6,0 0,-66.3 z"
     id="path7"
     inkscape:connector-curvature="0"
     style="fill:#ffffff" /><path
     class="st0"
     d="m 54.2,176.89998 13.3,0 0,70.3 -13.3,0 0,-70.3 z"
     id="path9"
     inkscape:connector-curvature="0"
     style="fill:#ffffff" /><path
     class="st0"
     d="m 76.8,223.59998 0,-0.7 c 0,-15.3 10.8,-25.2 24.9,-25.2 12.5,0 23.6,7.3 23.6,24.6 l 0,3.7 -34.9,0 c 0.4,8.1 4.7,12.7 12,12.7 6.2,0 9.3,-2.7 10.1,-6.8 l 12.7,0 c -1.6,10.5 -9.9,16.3 -23.1,16.3 -14.6,0 -25.3,-9.1 -25.3,-24.6 z m 35.5,-5.8 c -0.5,-7.3 -4.2,-10.8 -10.6,-10.8 -6,0 -10.1,4 -11.1,10.8 0,0 21.7,0 21.7,0 z"
     id="path11"
     inkscape:connector-curvature="0"
     style="fill:#ffffff" /><path
     class="st0"
     d="m 131.1,223.59998 0,-0.7 c 0,-15.6 11.2,-25.2 25,-25.2 11.2,0 21.6,4.9 22.8,18.8 l -12.7,0 c -0.9,-5.6 -4.4,-8.2 -9.8,-8.2 -6.9,0 -11.6,5.2 -11.6,14.4 l 0,0.7 c 0,9.7 4.4,14.7 11.8,14.7 5.4,0 9.7,-3.1 10.4,-9.3 l 12.1,0 c -0.7,11.5 -9.1,19.4 -23.1,19.4 -14.1,0 -24.9,-8.7 -24.9,-24.6 z"
     id="path13"
     inkscape:connector-curvature="0"
     style="fill:#ffffff" /><path
     class="st0"
     d="m 189.6,232.89998 0,-24.5 -6.2,0 0,-9.5 6.2,0 0,-10.5 13.4,0 0,10.5 10.2,0 0,9.5 -10.2,0 0,23.3 c 0,3.9 1.9,5.7 5.4,5.7 1.7,0.1 3.5,-0.3 5.1,-0.9 l 0,10.4 c -2.6,0.9 -5.4,1.3 -8.1,1.3 -10.3,0 -15.8,-5.2 -15.8,-15.3 z"
     id="path15"
     inkscape:connector-curvature="0"
     style="fill:#ffffff" /><path
     class="st0"
     d="m 221.8,184.89998 c -0.2,-4.2 3.1,-7.8 7.3,-8 4.2,-0.2 7.8,3.1 8,7.3 0.2,4.2 -3.1,7.8 -7.3,8 -0.1,0 -0.3,0 -0.4,0 -4,0.1 -7.4,-3 -7.6,-7.1 0,0 0,-0.1 0,-0.2 z m 1.1,13.9 13.3,0 0,48.4 -13.3,0 0,-48.4 0,0 z"
     id="path17"
     inkscape:connector-curvature="0"
     style="fill:#ffffff" /><path
     class="st0"
     d="m 243.7,223.49998 0,-0.7 c 0,-15.2 11,-25.1 25.5,-25.1 14.5,0 25.5,9.7 25.5,24.8 l 0,0.7 c 0,15.3 -11,25 -25.5,25 -14.5,0 -25.5,-9.6 -25.5,-24.7 z m 37.4,-0.2 0,-0.6 c 0,-9.3 -4.4,-14.8 -11.8,-14.8 -7.4,0 -11.8,5.4 -11.8,14.6 l 0,0.7 c 0,9.3 4.3,14.8 11.8,14.8 7.4,0.1 11.8,-5.5 11.8,-14.7 l 0,0 z"
     id="path19"
     inkscape:connector-curvature="0"
     style="fill:#ffffff" /><path
     class="st0"
     d="m 301.8,198.79998 13.4,0 0,7.7 c 2.4,-4.8 7.7,-8.8 15.7,-8.8 9.5,0 16.3,5.7 16.3,18.7 l 0,30.8 -13.4,0 0,-28.9 c 0,-6.6 -2.6,-9.7 -8.5,-9.7 -5.7,0 -10.1,3.5 -10.1,10.6 l 0,28 -13.4,0 0,-48.4 z"
     id="path21"
     inkscape:connector-curvature="0"
     style="fill:#ffffff" /><path
     class="st0"
     d="m 359.1,176.89998 13.3,0 0,70.3 -13.3,0 0,-70.3 z"
     id="path23"
     inkscape:connector-curvature="0"
     style="fill:#ffffff" /><path
     class="st0"
     d="m 381.5,233.79998 c 0,-11.3 10.4,-15.6 25.2,-15.6 l 5.5,0 0,-1.9 c 0,-5.7 -1.8,-8.9 -7.9,-8.9 -5.3,0 -7.7,2.7 -8.2,6.9 l -12.7,0 c 0.8,-11.5 9.9,-16.6 21.8,-16.6 11.9,0 20.3,4.8 20.3,18 l 0,31.6 -13.1,0 0,-5.8 c -2.8,3.9 -7,6.9 -14.6,6.9 -8.9,-0.2 -16.3,-4.4 -16.3,-14.6 z m 30.6,-3.5 0,-4.1 -5.1,0 c -7.8,0 -12.3,1.7 -12.3,6.8 0,3.5 2.1,5.8 7,5.8 5.9,0.1 10.4,-3.1 10.4,-8.5 l 0,0 z"
     id="path25"
     inkscape:connector-curvature="0"
     style="fill:#ffffff" /><path
     class="st0"
     d="m 436.8,198.79998 13.4,0 0,7.7 c 2.4,-4.8 7.7,-8.8 15.7,-8.8 9.5,0 16.3,5.7 16.3,18.7 l 0,30.8 -13.4,0 0,-28.9 c 0,-6.6 -2.6,-9.7 -8.5,-9.7 -5.7,0 -10.1,3.5 -10.1,10.6 l 0,28 -13.4,0 0,-48.4 z"
     id="path27"
     inkscape:connector-curvature="0"
     style="fill:#ffffff" /><path
     class="st0"
     d="m 490.9,223.69998 0,-0.7 c 0,-15.9 9.2,-25.3 21.3,-25.3 7.8,0 12.6,3.4 15.3,8.3 l 0,-29.2 13.3,0 0,70.3 -13.3,0 0,-8.1 c -3.1,5.6 -9.1,9.1 -15.5,9.1 -11.9,0.1 -21.1,-8.3 -21.1,-24.4 z m 36.9,-0.4 0,-0.7 c 0,-9.6 -4.3,-14.5 -11.6,-14.5 -7.5,0 -11.7,5.1 -11.7,14.7 l 0,0.7 c 0,9.6 4.6,14.3 11.3,14.3 7.1,0 12,-4.7 12,-14.5 l 0,0 z"
     id="path29"
     inkscape:connector-curvature="0"
     style="fill:#ffffff" /><polygon
     class="st1"
     points="362.6,146.1 362.6,122.7 250.8,122.7 239,146.1 "
     id="polygon31"
     style="fill:#ff0000"
     transform="translate(-157.00645,-3.5424806e-6)" /><rect
     x="105.69357"
     y="78.099976"
     class="st1"
     width="79.800003"
     height="23.4"
     id="rect33"
     style="fill:#ff0000" /><rect
     x="105.69357"
     y="33.499992"
     class="st1"
     width="99.900002"
     height="23.4"
     id="rect35"
     style="fill:#ff0000" /><path
     class="st2"
     d="m 0.09355185,112.40001 0,-112.4000135424806 112.39999815,0 0,112.4000135424806 -112.39999815,0 z"
     id="path37"
     inkscape:connector-curvature="0"
     style="fill:#49b3e6" /><polygon
     class="st3"
     points="239,146.1 242.8,112.4 269.6,112.4 "
     id="polygon39"
     style="fill:#231f20"
     transform="translate(-157.00645,-3.5424806e-6)" /><path
     class="st0"
     d="m 46.593552,70.899994 -8.7,-16.099999 -18.4,0 15.7,28.699999 c 0.4,0.8 1.3,1.3 2.2,1.3 l 17.7,0 c 0.9,0 1.7,-0.4 2.1,-1.2 l 35.9,-55.6 -18.9,0 -27.6,42.9 z"
     id="path41"
     inkscape:connector-curvature="0"
     style="fill:#ffffff" /></svg>
